<?xml version="1.0" encoding="UTF-8"?>
<svg id="Layer_1" data-name="Layer 1" xmlns="http://www.w3.org/2000/svg" viewBox="0 0 458.39 157.4">
  <path d="M127.6,140.6c0,7.8,2.2,12,4.4,14v.4h-64.8v-.4c1.2-2,2.4-6.2,2.4-14v-68.6c0-3.8-2-5.8-5.2-5.8-.56,0-1.09.07-1.6.19v74.2c0,7.8,1.2,12,2.4,14v.4H.4v-.4c2.2-2,4.4-6.2,4.4-14V16.8C4.8,9,2.4,4.8,0,2.8v-.4L62.8,0l-.78,64.09c9.42-9.42,21.99-16.29,37.58-16.29,14.4,0,28,6,28,28.6v64.2h0Z"/>
  <path d="M255.59,136.2c0,7.8.8,12,7.2,12.2v.4c-6.8,4.8-16.4,7.8-31.6,7.8s-29.56-2.71-31.13-15.38c-6.36,9.3-21.16,16.18-37.46,16.18-15.4,0-29.8-6.2-29.8-24.2,0-16.8,12.2-24,29.6-27,10.43-1.77,27.84-3.15,36.4-17.5v-29.29c0-6.2-5-9-10.2-9-2.57,0-6.49.51-9.75,1.83,12.63,8.19,16.15,17.27,16.15,24.77,0,15.6-12,24.6-28.4,24.6-15.2,0-26-9.2-26-23.4,0-22.8,27.2-30.4,56.6-30.4,31.4,0,58.4,6.8,58.4,31v57.4h0ZM190.79,121.4c0,10.4,2.6,19,8,19v-47.78c-5.15,5.62-8,18.05-8,28.78h0Z"/>
  <path d="M327.6,154.6v.4h-66.8v-.4c2.2-2,4.4-6.2,4.4-14V16.8c0-7.8-2.4-12-4.8-14v-.4L323.2,0v140.6c0,7.8,2.2,12,4.4,14Z"/>
  <path d="M451.19,136.2c0,7.8.8,12,7.2,12.2v.4c-6.8,4.8-16.4,7.8-31.6,7.8s-29.56-2.71-31.13-15.38c-6.36,9.3-21.16,16.18-37.46,16.18-15.4,0-29.8-6.2-29.8-24.2,0-16.8,12.2-24,29.6-27,10.43-1.77,27.84-3.15,36.4-17.5v-29.29c0-6.2-5-9-10.2-9-2.57,0-6.49.51-9.75,1.83,12.63,8.19,16.15,17.27,16.15,24.77,0,15.6-12,24.6-28.4,24.6-15.2,0-26-9.2-26-23.4,0-22.8,27.2-30.4,56.6-30.4,31.4,0,58.4,6.8,58.4,31v57.4h0ZM386.39,121.4c0,10.4,2.6,19,8,19v-47.78c-5.15,5.62-8,18.05-8,28.78h0Z"/>
</svg>